<mxfile host="65bd71144e">
    <diagram name="Zussamenhänge" id="X9OWJ35uOtAdA-NNBHe4">
        <mxGraphModel dx="1367" dy="881" grid="1" gridSize="10" guides="1" tooltips="1" connect="1" arrows="1" fold="1" page="1" pageScale="1" pageWidth="100000" pageHeight="100000" math="0" shadow="0">
            <root>
                <mxCell id="0"/>
                <mxCell id="1" parent="0"/>
                <mxCell id="30" value="Farmsystem" style="swimlane;whiteSpace=wrap;html=1;fillColor=#1ba1e2;fontColor=#ffffff;strokeColor=#006EAF;" parent="1" vertex="1">
                    <mxGeometry x="70" y="190" width="190" height="80" as="geometry"/>
                </mxCell>
                <mxCell id="31" value="PVP / PVE System" style="swimlane;whiteSpace=wrap;html=1;fillColor=#1ba1e2;fontColor=#ffffff;strokeColor=#006EAF;" parent="1" vertex="1">
                    <mxGeometry x="70" y="410" width="190" height="80" as="geometry"/>
                </mxCell>
                <mxCell id="32" value="Ränge und Rechteverwaltung" style="swimlane;whiteSpace=wrap;html=1;fillColor=#60a917;fontColor=#ffffff;strokeColor=#2D7600;" parent="1" vertex="1">
                    <mxGeometry x="500" y="110" width="190" height="80" as="geometry"/>
                </mxCell>
                <mxCell id="33" value="Essentials" style="swimlane;whiteSpace=wrap;html=1;fillColor=#60a917;fontColor=#ffffff;strokeColor=#2D7600;" parent="1" vertex="1">
                    <mxGeometry x="10" y="680" width="190" height="80" as="geometry">
                        <mxRectangle x="10" y="680" width="100" height="30" as="alternateBounds"/>
                    </mxGeometry>
                </mxCell>
                <mxCell id="lXZpzqspqqXLeYSe-F31-41" value="&lt;a href=&quot;https://www.spigotmc.org/resources/essentialsx.9089/&quot;&gt;Essentials&lt;/a&gt;" style="text;html=1;align=center;verticalAlign=middle;resizable=0;points=[];autosize=1;strokeColor=none;fillColor=none;" parent="33" vertex="1">
                    <mxGeometry x="55" y="40" width="80" height="30" as="geometry"/>
                </mxCell>
                <mxCell id="34" value="Worldedit / Worldguard" style="swimlane;whiteSpace=wrap;html=1;fillColor=#60a917;fontColor=#ffffff;strokeColor=#2D7600;" parent="1" vertex="1">
                    <mxGeometry x="10" y="580" width="190" height="80" as="geometry"/>
                </mxCell>
                <mxCell id="lXZpzqspqqXLeYSe-F31-45" value="&lt;a href=&quot;https://dev.bukkit.org/projects/worldguard&quot;&gt;Worldguard&lt;/a&gt;" style="text;html=1;align=center;verticalAlign=middle;resizable=0;points=[];autosize=1;strokeColor=none;fillColor=none;" parent="34" vertex="1">
                    <mxGeometry x="55" y="50" width="90" height="30" as="geometry"/>
                </mxCell>
                <mxCell id="35" value="Quests" style="swimlane;whiteSpace=wrap;html=1;fillColor=#1ba1e2;fontColor=#ffffff;strokeColor=#006EAF;" parent="1" vertex="1">
                    <mxGeometry x="70" y="300" width="190" height="80" as="geometry"/>
                </mxCell>
                <mxCell id="38" value="Factions" style="swimlane;whiteSpace=wrap;html=1;fillColor=#60a917;fontColor=#ffffff;strokeColor=#2D7600;" parent="1" vertex="1">
                    <mxGeometry x="10" y="770" width="190" height="80" as="geometry"/>
                </mxCell>
                <mxCell id="lXZpzqspqqXLeYSe-F31-43" value="&lt;a href=&quot;https://www.spigotmc.org/resources/towny-advanced.72694/&quot;&gt;Towny&lt;/a&gt;" style="text;html=1;align=center;verticalAlign=middle;resizable=0;points=[];autosize=1;strokeColor=none;fillColor=none;" parent="38" vertex="1">
                    <mxGeometry x="65" y="40" width="60" height="30" as="geometry"/>
                </mxCell>
                <mxCell id="39" value="REVO PLUGIN" style="swimlane;whiteSpace=wrap;html=1;fillColor=#1ba1e2;fontColor=#ffffff;strokeColor=#006EAF;startSize=23;" parent="1" vertex="1">
                    <mxGeometry x="800" y="205" width="950" height="350" as="geometry">
                        <mxRectangle x="800" y="205" width="110" height="30" as="alternateBounds"/>
                    </mxGeometry>
                </mxCell>
                <mxCell id="lXZpzqspqqXLeYSe-F31-55" value="ChatSystem" style="swimlane;whiteSpace=wrap;html=1;fillColor=#1ba1e2;fontColor=#ffffff;strokeColor=#006EAF;" parent="39" vertex="1">
                    <mxGeometry x="10" y="35" width="190" height="80" as="geometry">
                        <mxRectangle y="-110" width="110" height="30" as="alternateBounds"/>
                    </mxGeometry>
                </mxCell>
                <mxCell id="lXZpzqspqqXLeYSe-F31-56" value="Steuert chatnachrichten&amp;nbsp;&lt;br&gt;Und teilt auf die verschiedenen&lt;br&gt;Reichweiten auf" style="text;html=1;align=left;verticalAlign=middle;resizable=0;points=[];autosize=1;strokeColor=none;fillColor=none;" parent="lXZpzqspqqXLeYSe-F31-55" vertex="1">
                    <mxGeometry x="10" y="20" width="190" height="60" as="geometry"/>
                </mxCell>
                <mxCell id="37" value="Economy" style="swimlane;whiteSpace=wrap;html=1;fillColor=#1ba1e2;fontColor=#ffffff;strokeColor=#006EAF;" parent="39" vertex="1">
                    <mxGeometry x="10" y="130" width="190" height="80" as="geometry"/>
                </mxCell>
                <mxCell id="28" value="Berufe" style="swimlane;whiteSpace=wrap;html=1;fillColor=#1ba1e2;fontColor=#ffffff;strokeColor=#006EAF;" parent="39" vertex="1">
                    <mxGeometry x="10" y="225" width="190" height="80" as="geometry"/>
                </mxCell>
                <mxCell id="lXZpzqspqqXLeYSe-F31-40" value="&lt;a href=&quot;https://luckperms.net/&quot;&gt;Luckperms&lt;/a&gt;" style="text;html=1;align=center;verticalAlign=middle;resizable=0;points=[];autosize=1;strokeColor=none;fillColor=none;" parent="1" vertex="1">
                    <mxGeometry x="550" y="145" width="80" height="30" as="geometry"/>
                </mxCell>
                <mxCell id="lXZpzqspqqXLeYSe-F31-44" value="&lt;a href=&quot;https://dev.bukkit.org/projects/worldedit&quot;&gt;Worldedit&lt;/a&gt;" style="text;html=1;align=center;verticalAlign=middle;resizable=0;points=[];autosize=1;strokeColor=none;fillColor=none;" parent="1" vertex="1">
                    <mxGeometry x="75" y="605" width="70" height="30" as="geometry"/>
                </mxCell>
                <mxCell id="lXZpzqspqqXLeYSe-F31-70" value="Datenbank Manager" style="swimlane;whiteSpace=wrap;html=1;fillColor=#fa6800;fontColor=#000000;strokeColor=#C73500;" parent="1" vertex="1">
                    <mxGeometry x="890" y="40" width="190" height="80" as="geometry">
                        <mxRectangle x="820" y="110" width="150" height="30" as="alternateBounds"/>
                    </mxGeometry>
                </mxCell>
                <mxCell id="lXZpzqspqqXLeYSe-F31-71" value="Stellt Datenbank Utilfunktionen&amp;nbsp;&lt;br&gt;zur verfügung" style="text;html=1;align=center;verticalAlign=middle;resizable=0;points=[];autosize=1;strokeColor=none;fillColor=none;" parent="lXZpzqspqqXLeYSe-F31-70" vertex="1">
                    <mxGeometry y="25" width="190" height="40" as="geometry"/>
                </mxCell>
                <mxCell id="lXZpzqspqqXLeYSe-F31-73" value="LEGENDE" style="swimlane;whiteSpace=wrap;html=1;" parent="1" vertex="1" collapsed="1">
                    <mxGeometry x="15" y="30" width="110" height="30" as="geometry">
                        <mxRectangle x="15" y="30" width="345" height="300" as="alternateBounds"/>
                    </mxGeometry>
                </mxCell>
                <mxCell id="lXZpzqspqqXLeYSe-F31-72" value="Externes Plugin" style="rounded=0;whiteSpace=wrap;html=1;fillColor=#60a917;fontColor=#ffffff;strokeColor=#2D7600;" parent="lXZpzqspqqXLeYSe-F31-73" vertex="1">
                    <mxGeometry x="20" y="30" width="100" height="30" as="geometry"/>
                </mxCell>
                <mxCell id="lXZpzqspqqXLeYSe-F31-74" value="Internes Plugin" style="rounded=0;whiteSpace=wrap;html=1;fillColor=#1ba1e2;fontColor=#ffffff;strokeColor=#006EAF;" parent="lXZpzqspqqXLeYSe-F31-73" vertex="1">
                    <mxGeometry x="20" y="70" width="100" height="30" as="geometry"/>
                </mxCell>
                <mxCell id="lXZpzqspqqXLeYSe-F31-75" value="Externes Libary Plugin&lt;br&gt;" style="rounded=0;whiteSpace=wrap;html=1;fillColor=#f0a30a;fontColor=#000000;strokeColor=#BD7000;" parent="lXZpzqspqqXLeYSe-F31-73" vertex="1">
                    <mxGeometry x="20" y="110" width="100" height="30" as="geometry"/>
                </mxCell>
                <mxCell id="lXZpzqspqqXLeYSe-F31-76" value="Internes Libary Plugin" style="rounded=0;whiteSpace=wrap;html=1;fillColor=#fa6800;fontColor=#000000;strokeColor=#C73500;" parent="lXZpzqspqqXLeYSe-F31-73" vertex="1">
                    <mxGeometry x="20" y="150" width="100" height="30" as="geometry"/>
                </mxCell>
                <mxCell id="lXZpzqspqqXLeYSe-F31-86" value="Plugin Kommunikation" style="rounded=0;whiteSpace=wrap;html=1;fillColor=#76608a;fontColor=#ffffff;strokeColor=#432D57;" parent="lXZpzqspqqXLeYSe-F31-73" vertex="1">
                    <mxGeometry x="20" y="190" width="100" height="30" as="geometry"/>
                </mxCell>
                <mxCell id="qKP4Lk8U-MVNwb4nmOGf-57" style="edgeStyle=orthogonalEdgeStyle;rounded=0;html=1;entryX=0.5;entryY=1;entryDx=0;entryDy=0;startArrow=none;startFill=0;" edge="1" parent="1" source="lXZpzqspqqXLeYSe-F31-81" target="lXZpzqspqqXLeYSe-F31-70">
                    <mxGeometry relative="1" as="geometry"/>
                </mxCell>
                <mxCell id="lXZpzqspqqXLeYSe-F31-81" value="&amp;lt;REVOPLAYER&amp;gt;" style="swimlane;whiteSpace=wrap;html=1;fillColor=#76608a;fontColor=#ffffff;strokeColor=#432D57;" parent="1" vertex="1" collapsed="1">
                    <mxGeometry x="845" y="160" width="140" height="30" as="geometry">
                        <mxRectangle x="845" y="175" width="160" height="305" as="alternateBounds"/>
                    </mxGeometry>
                </mxCell>
                <mxCell id="lXZpzqspqqXLeYSe-F31-85" value="Abspeichern / Laden eines RevoPlayer." style="rounded=0;whiteSpace=wrap;html=1;" parent="lXZpzqspqqXLeYSe-F31-81" vertex="1">
                    <mxGeometry y="23" width="160" height="282" as="geometry"/>
                </mxCell>
                <mxCell id="qKP4Lk8U-MVNwb4nmOGf-58" style="edgeStyle=orthogonalEdgeStyle;rounded=0;html=1;entryX=0.5;entryY=1;entryDx=0;entryDy=0;startArrow=none;startFill=0;" edge="1" parent="1" source="qKP4Lk8U-MVNwb4nmOGf-55" target="lXZpzqspqqXLeYSe-F31-70">
                    <mxGeometry relative="1" as="geometry"/>
                </mxCell>
                <mxCell id="qKP4Lk8U-MVNwb4nmOGf-55" value="&amp;lt;Finanzen&amp;gt;" style="swimlane;whiteSpace=wrap;html=1;fillColor=#76608a;fontColor=#ffffff;strokeColor=#432D57;" vertex="1" collapsed="1" parent="1">
                    <mxGeometry x="1000" y="160" width="140" height="30" as="geometry">
                        <mxRectangle x="1370" y="365" width="160" height="305" as="alternateBounds"/>
                    </mxGeometry>
                </mxCell>
                <mxCell id="qKP4Lk8U-MVNwb4nmOGf-56" value="Abspeichern und laden von Geldkonten" style="rounded=0;whiteSpace=wrap;html=1;" vertex="1" parent="qKP4Lk8U-MVNwb4nmOGf-55">
                    <mxGeometry y="23" width="160" height="282" as="geometry"/>
                </mxCell>
                <mxCell id="qKP4Lk8U-MVNwb4nmOGf-60" value="" style="group;imageAspect=0;" vertex="1" connectable="0" parent="1">
                    <mxGeometry x="750" y="350" width="40" height="30" as="geometry"/>
                </mxCell>
                <mxCell id="lXZpzqspqqXLeYSe-F31-51" style="edgeStyle=orthogonalEdgeStyle;rounded=0;html=1;entryX=1;entryY=0.5;entryDx=0;entryDy=0;dashed=1;startArrow=classic;startFill=1;endArrow=oval;endFill=1;" parent="qKP4Lk8U-MVNwb4nmOGf-60" source="39" target="32" edge="1">
                    <mxGeometry relative="1" as="geometry"/>
                </mxCell>
                <mxCell id="lXZpzqspqqXLeYSe-F31-53" value="API" style="text;html=1;align=center;verticalAlign=middle;resizable=0;points=[];autosize=1;strokeColor=none;fillColor=none;" parent="qKP4Lk8U-MVNwb4nmOGf-60" vertex="1">
                    <mxGeometry width="40" height="30" as="geometry"/>
                </mxCell>
            </root>
        </mxGraphModel>
    </diagram>
    <diagram id="OkgiQ9T5N-A0C2wPRWSn" name="RevoCore">
        <mxGraphModel dx="2871" dy="1850" grid="1" gridSize="10" guides="1" tooltips="1" connect="1" arrows="1" fold="1" page="1" pageScale="1" pageWidth="100000" pageHeight="100000" math="0" shadow="0">
            <root>
                <mxCell id="0"/>
                <mxCell id="1" parent="0"/>
                <mxCell id="5oKMMmyDKGHGmHRoEG2U-2" value="List" style="swimlane;fontStyle=0;childLayout=stackLayout;horizontal=1;startSize=30;horizontalStack=0;resizeParent=1;resizeParentMax=0;resizeLast=0;collapsible=1;marginBottom=0;whiteSpace=wrap;html=1;" vertex="1" parent="1">
                    <mxGeometry x="1380" y="870" width="140" height="120" as="geometry"/>
                </mxCell>
                <mxCell id="5oKMMmyDKGHGmHRoEG2U-3" value="Item 1" style="text;strokeColor=none;fillColor=none;align=left;verticalAlign=middle;spacingLeft=4;spacingRight=4;overflow=hidden;points=[[0,0.5],[1,0.5]];portConstraint=eastwest;rotatable=0;whiteSpace=wrap;html=1;" vertex="1" parent="5oKMMmyDKGHGmHRoEG2U-2">
                    <mxGeometry y="30" width="140" height="30" as="geometry"/>
                </mxCell>
                <mxCell id="5oKMMmyDKGHGmHRoEG2U-4" value="Item 2" style="text;strokeColor=none;fillColor=none;align=left;verticalAlign=middle;spacingLeft=4;spacingRight=4;overflow=hidden;points=[[0,0.5],[1,0.5]];portConstraint=eastwest;rotatable=0;whiteSpace=wrap;html=1;" vertex="1" parent="5oKMMmyDKGHGmHRoEG2U-2">
                    <mxGeometry y="60" width="140" height="30" as="geometry"/>
                </mxCell>
                <mxCell id="5oKMMmyDKGHGmHRoEG2U-5" value="Item 3" style="text;strokeColor=none;fillColor=none;align=left;verticalAlign=middle;spacingLeft=4;spacingRight=4;overflow=hidden;points=[[0,0.5],[1,0.5]];portConstraint=eastwest;rotatable=0;whiteSpace=wrap;html=1;" vertex="1" parent="5oKMMmyDKGHGmHRoEG2U-2">
                    <mxGeometry y="90" width="140" height="30" as="geometry"/>
                </mxCell>
            </root>
        </mxGraphModel>
    </diagram>
</mxfile>